<svg width="40" height="40" viewBox="0 0 40 40" fill="none" xmlns="http://www.w3.org/2000/svg">
<circle cx="19.9999" cy="19.9999" r="18.4999" fill="white" stroke="#DDDDDD"/>
<mask id="mask0_40000001_51894" style="mask-type:alpha" maskUnits="userSpaceOnUse" x="1" y="1" width="38" height="38">
<circle cx="20.4751" cy="20.4751" r="18.0249" fill="white" stroke="#DDDDDD"/>
</mask>
<g mask="url(#mask0_40000001_51894)">
<rect x="8.74805" y="9.71875" width="22.5279" height="25.6649" rx="11.2639" fill="#F2F2F2" stroke="#BBBBBB"/>
<mask id="path-4-inside-1_40000001_51894" fill="white">
<path d="M19.751 7.65039C26.3919 7.65058 31.7754 13.0348 31.7754 19.6758V20.3682C31.7754 20.5679 31.7694 20.7665 31.7598 20.9639C29.7147 21.6204 26.2431 21.9004 20.4746 21.9004C12.8644 21.9004 9.29181 21.6512 7.74609 21.0732C7.73261 20.84 7.72559 20.6048 7.72559 20.3682V19.6758C7.72559 13.0347 13.1099 7.65039 19.751 7.65039Z"/>
</mask>
<path d="M19.751 7.65039C26.3919 7.65058 31.7754 13.0348 31.7754 19.6758V20.3682C31.7754 20.5679 31.7694 20.7665 31.7598 20.9639C29.7147 21.6204 26.2431 21.9004 20.4746 21.9004C12.8644 21.9004 9.29181 21.6512 7.74609 21.0732C7.73261 20.84 7.72559 20.6048 7.72559 20.3682V19.6758C7.72559 13.0347 13.1099 7.65039 19.751 7.65039Z" fill="#E2E2E2"/>
<path d="M19.751 7.65039L19.751 6.65039H19.751V7.65039ZM31.7598 20.9639L32.0655 21.916L32.7248 21.7043L32.7586 21.0126L31.7598 20.9639ZM20.4746 21.9004L20.4746 22.9004H20.4746V21.9004ZM7.74609 21.0732L6.74776 21.131L6.78538 21.7816L7.39585 22.0099L7.74609 21.0732ZM19.751 7.65039L19.7509 8.65039C25.8396 8.65057 30.7754 13.587 30.7754 19.6758H31.7754H32.7754C32.7754 12.4826 26.9443 6.6506 19.751 6.65039L19.751 7.65039ZM31.7754 19.6758H30.7754V20.3682H31.7754H32.7754V19.6758H31.7754ZM31.7754 20.3682H30.7754C30.7754 20.5481 30.77 20.73 30.761 20.9151L31.7598 20.9639L32.7586 21.0126C32.7688 20.803 32.7754 20.5877 32.7754 20.3682H31.7754ZM31.7598 20.9639L31.4541 20.0117C29.5798 20.6135 26.2609 20.9004 20.4746 20.9004V21.9004V22.9004C26.2253 22.9004 29.8497 22.6274 32.0655 21.916L31.7598 20.9639ZM20.4746 21.9004L20.4746 20.9004C16.6756 20.9004 13.9062 20.8381 11.9021 20.7057C9.86978 20.5715 8.71975 20.3697 8.09633 20.1366L7.74609 21.0732L7.39585 22.0099C8.31815 22.3548 9.72728 22.5665 11.7703 22.7014C13.8414 22.8381 16.6634 22.9004 20.4746 22.9004L20.4746 21.9004ZM7.74609 21.0732L8.74443 21.0155C8.73202 20.8009 8.72559 20.5851 8.72559 20.3682H7.72559H6.72559C6.72559 20.6246 6.73319 20.879 6.74776 21.131L7.74609 21.0732ZM7.72559 20.3682H8.72559V19.6758H7.72559H6.72559V20.3682H7.72559ZM7.72559 19.6758H8.72559C8.72559 13.587 13.6621 8.65039 19.751 8.65039V7.65039V6.65039C12.5576 6.65039 6.72559 12.4824 6.72559 19.6758H7.72559Z" fill="#BBBBBB" mask="url(#path-4-inside-1_40000001_51894)"/>
<rect x="16.0908" y="23.335" width="1.56853" height="3.13705" rx="0.784263" fill="#8A8A8A"/>
<rect x="22.3652" y="23.335" width="1.56853" height="3.13705" rx="0.784263" fill="#8A8A8A"/>
<path d="M17.6592 29.6094V29.6094C18.8356 31.1779 21.1884 31.1779 22.3648 29.6094V29.6094" stroke="#8A8A8A" stroke-linecap="round" stroke-linejoin="round"/>
<path d="M14.5215 38.6289L15.3057 46.4715L19.2271 42.1937" stroke="#CCCCCC" stroke-linecap="round" stroke-linejoin="round"/>
<path d="M25.502 38.6289L24.7177 46.4715L20.7964 42.1937" stroke="#CCCCCC" stroke-linecap="round" stroke-linejoin="round"/>
<path d="M14.7754 19.5498C17.2435 19.5498 19.4636 19.7609 21.0537 20.0957C21.8528 20.264 22.4666 20.4583 22.8682 20.6582C23.0694 20.7584 23.192 20.8474 23.2578 20.915C23.2703 20.9278 23.2774 20.9406 23.2842 20.9492C23.2774 20.9579 23.2706 20.9712 23.2578 20.9844C23.1919 21.0521 23.0696 21.1419 22.8682 21.2422C22.4666 21.4421 21.8528 21.6355 21.0537 21.8037C19.4636 22.1385 17.2435 22.3496 14.7754 22.3496C12.3071 22.3496 10.0863 22.1385 8.49609 21.8037C7.69703 21.6355 7.08317 21.442 6.68164 21.2422C6.48016 21.1419 6.35784 21.0521 6.29199 20.9844C6.27893 20.9709 6.27146 20.958 6.26465 20.9492C6.27142 20.9405 6.27928 20.9281 6.29199 20.915C6.35783 20.8474 6.48043 20.7584 6.68164 20.6582C7.08318 20.4583 7.69701 20.2639 8.49609 20.0957C10.0863 19.7609 12.3071 19.5498 14.7754 19.5498Z" fill="#D9D9D9" stroke="#ADADAD"/>
<path d="M20 8.15039C20.4267 8.15047 20.7938 8.28091 21.043 8.46777C21.292 8.65455 21.3993 8.87441 21.3994 9.0752C21.3994 9.276 21.292 9.4958 21.043 9.68262C20.7938 9.86951 20.4268 9.99992 20 10C19.5731 10 19.2053 9.86957 18.9561 9.68262C18.7071 9.49581 18.5996 9.27597 18.5996 9.0752C18.5997 8.87442 18.707 8.65455 18.9561 8.46777C19.2053 8.28082 19.5731 8.15039 20 8.15039Z" fill="#D9D9D9" stroke="#ADADAD"/>
</g>
</svg>
