<svg width="40" height="41" viewBox="0 0 40 41" fill="none" xmlns="http://www.w3.org/2000/svg">
<circle cx="20" cy="19.9014" r="18.5" fill="white" stroke="#DDDDDD"/>
<mask id="mask0_40000001_51793" style="mask-type:alpha" maskUnits="userSpaceOnUse" x="1" y="0" width="38" height="39">
<circle cx="20" cy="19.9014" r="18.5" fill="white" stroke="#DDDDDD"/>
</mask>
<g mask="url(#mask0_40000001_51793)">
<path d="M30.9229 22.3828C30.9229 31.2382 33.4865 49.9306 36.9678 51.6807L17.8779 51.5137H1.44531C5.0815 49.8208 8.50867 31.2469 8.50879 22.3828V19.9561H30.8721L30.9229 22.3828Z" fill="#E2E2E2"/>
<path d="M30.9229 22.3828L31.423 22.3828L31.4227 22.3724L30.9229 22.3828ZM36.9678 51.6807L36.9634 52.1806L37.1924 51.2339L36.9678 51.6807ZM17.8779 51.5137L17.8823 51.0137H17.8779V51.5137ZM1.44531 51.5137L1.23428 51.0604L1.44531 52.0137V51.5137ZM8.50879 22.3828L9.00879 22.3828V22.3828H8.50879ZM8.50879 19.9561V19.4561H8.00879V19.9561H8.50879ZM30.8721 19.9561L31.372 19.9456L31.3617 19.4561H30.8721V19.9561ZM30.9229 22.3828L30.4229 22.3828C30.4229 26.8455 31.0675 33.7624 32.1477 39.7845C32.6878 42.7954 33.3399 45.6005 34.0814 47.7715C34.4519 48.856 34.8499 49.7981 35.2759 50.5332C35.6936 51.254 36.1753 51.8419 36.7432 52.1274L36.9678 51.6807L37.1924 51.2339C36.8899 51.0819 36.53 50.7029 36.1411 50.0318C35.7606 49.3751 35.3872 48.5005 35.0278 47.4482C34.3095 45.3454 33.668 42.5958 33.132 39.6079C32.0601 33.6325 31.4229 26.7756 31.4229 22.3828L30.9229 22.3828ZM36.9678 51.6807L36.9721 51.1807L17.8823 51.0137L17.8779 51.5137L17.8736 52.0137L36.9634 52.1806L36.9678 51.6807ZM17.8779 51.5137V51.0137H1.44531V51.5137V52.0137H17.8779V51.5137ZM1.44531 51.5137L1.65634 51.967C2.24073 51.6949 2.7555 51.1222 3.21341 50.4098C3.67953 49.6846 4.12556 48.7526 4.54831 47.6773C5.39445 45.5251 6.17041 42.7393 6.82891 39.7448C8.14543 33.7581 9.00873 26.8612 9.00879 22.3828L8.50879 22.3828L8.00879 22.3828C8.00873 26.7685 7.15839 33.5906 5.85224 39.5301C5.19941 42.4987 4.43679 45.2278 3.61765 47.3114C3.20777 48.3539 2.78948 49.2199 2.37219 49.8691C1.94668 50.5311 1.55894 50.9092 1.23428 51.0604L1.44531 51.5137ZM8.50879 22.3828H9.00879V19.9561H8.50879H8.00879V22.3828H8.50879ZM8.50879 19.9561V20.4561H30.8721V19.9561V19.4561H8.50879V19.9561ZM30.8721 19.9561L30.3722 19.9665L30.423 22.3933L30.9229 22.3828L31.4227 22.3724L31.372 19.9456L30.8721 19.9561Z" fill="#BBBBBB"/>
<rect x="8.40137" y="9.15039" width="23.2217" height="26.4513" rx="11.6108" fill="#F2F2F2" stroke="#BBBBBB"/>
<mask id="path-6-inside-1_40000001_51793" fill="white">
<path d="M20.0615 7.03516C26.7226 7.03525 32.1221 12.4356 32.1221 19.0967V20.4463C32.1221 20.9277 32.0929 21.4024 32.0381 21.8691C31.0976 21.8001 30.1701 21.617 29.2734 21.3096C27.3258 20.6417 25.7552 19.47 24.6182 17.9668C23.0595 19.4068 20.9998 20.6378 18.5625 21.4736C14.9324 22.7185 11.1811 22.8431 8.10449 22.041C8.03556 21.5192 8.00001 20.9869 8 20.4463V19.0967C8 12.4355 13.4004 7.03516 20.0615 7.03516Z"/>
</mask>
<path d="M20.0615 7.03516C26.7226 7.03525 32.1221 12.4356 32.1221 19.0967V20.4463C32.1221 20.9277 32.0929 21.4024 32.0381 21.8691C31.0976 21.8001 30.1701 21.617 29.2734 21.3096C27.3258 20.6417 25.7552 19.47 24.6182 17.9668C23.0595 19.4068 20.9998 20.6378 18.5625 21.4736C14.9324 22.7185 11.1811 22.8431 8.10449 22.041C8.03556 21.5192 8.00001 20.9869 8 20.4463V19.0967C8 12.4355 13.4004 7.03516 20.0615 7.03516Z" fill="#E2E2E2"/>
<path d="M20.0615 7.03516L20.0615 6.03516H20.0615V7.03516ZM32.1221 20.4463L33.1221 20.4463V20.4463H32.1221ZM32.0381 21.8691L31.9648 22.8665L32.9195 22.9366L33.0312 21.9859L32.0381 21.8691ZM29.2734 21.3096L28.9491 22.2555L28.9491 22.2555L29.2734 21.3096ZM24.6182 17.9668L25.4157 17.3635L24.75 16.4835L23.9396 17.2323L24.6182 17.9668ZM18.5625 21.4736L18.8869 22.4196L18.8869 22.4196L18.5625 21.4736ZM8.10449 22.041L7.11311 22.172L7.20122 22.8389L7.85221 23.0087L8.10449 22.041ZM8 20.4463H7V20.4463L8 20.4463ZM20.0615 7.03516L20.0615 8.03516C26.1702 8.03525 31.1221 12.9878 31.1221 19.0967H32.1221H33.1221C33.1221 11.8834 27.275 6.03526 20.0615 6.03516L20.0615 7.03516ZM32.1221 19.0967H31.1221V20.4463H32.1221H33.1221V19.0967H32.1221ZM32.1221 20.4463L31.1221 20.4463C31.1221 20.8874 31.0954 21.3231 31.0449 21.7524L32.0381 21.8691L33.0312 21.9859C33.0905 21.4818 33.1221 20.9681 33.1221 20.4463L32.1221 20.4463ZM32.0381 21.8691L32.1113 20.8718C31.2519 20.8087 30.4091 20.6418 29.5978 20.3636L29.2734 21.3096L28.9491 22.2555C29.9311 22.5922 30.9434 22.7914 31.9648 22.8665L32.0381 21.8691ZM29.2734 21.3096L29.5978 20.3636C27.8393 19.7606 26.4332 18.7087 25.4157 17.3635L24.6182 17.9668L23.8206 18.5701C25.0773 20.2314 26.8123 21.5227 28.9491 22.2555L29.2734 21.3096ZM24.6182 17.9668L23.9396 17.2323C22.4925 18.5692 20.5566 19.7326 18.2381 20.5277L18.5625 21.4736L18.8869 22.4196C21.4429 21.543 23.6266 20.2443 25.2968 18.7013L24.6182 17.9668ZM18.5625 21.4736L18.2381 20.5277C14.7792 21.7138 11.2287 21.8221 8.35677 21.0734L8.10449 22.041L7.85221 23.0087C11.1336 23.8642 15.0857 23.7231 18.8869 22.4196L18.5625 21.4736ZM8.10449 22.041L9.09588 21.91C9.03267 21.4316 9.00001 20.943 9 20.4463L8 20.4463L7 20.4463C7.00001 21.0308 7.03845 21.6069 7.11311 22.172L8.10449 22.041ZM8 20.4463H9V19.0967H8H7V20.4463H8ZM8 19.0967H9C9 12.9878 13.9526 8.03516 20.0615 8.03516V7.03516V6.03516C12.8481 6.03516 7 11.8832 7 19.0967H8Z" fill="#BBBBBB" mask="url(#path-6-inside-1_40000001_51793)"/>
<rect x="15.9756" y="23.1826" width="1.61478" height="3.22956" rx="0.80739" fill="#8A8A8A"/>
<rect x="22.4355" y="23.1826" width="1.61478" height="3.22956" rx="0.80739" fill="#8A8A8A"/>
<path d="M17.5908 29.6416V29.6416C18.8019 31.2564 21.2241 31.2564 22.4352 29.6416V29.6416" stroke="#8A8A8A" stroke-linecap="round" stroke-linejoin="round"/>
</g>
</svg>
