<svg width="40" height="40" viewBox="0 0 40 40" fill="none" xmlns="http://www.w3.org/2000/svg">
<circle cx="20" cy="20" r="18.5" fill="white" stroke="#DDDDDD"/>
<mask id="mask0_40000001_51853" style="mask-type:alpha" maskUnits="userSpaceOnUse" x="1" y="1" width="38" height="38">
<circle cx="20.4752" cy="20.4752" r="18.025" fill="white" stroke="#DDDDDD"/>
</mask>
<g mask="url(#mask0_40000001_51853)">
<path d="M3.8623 31.416C9.69726 28.8799 14.0035 23.7291 15.4541 17.5127C15.9332 15.4593 15.0317 13.3309 13.2236 12.2461L12.7305 11.9502C10.8767 10.8381 8.55491 10.8624 6.72461 12.0127C4.89635 13.1619 4.19629 15.5129 5.07617 17.4941C6.64541 21.0277 6.66546 25.1037 5.09473 28.6406L3.8623 31.416Z" fill="#D9D9D9" stroke="#BBBBBB"/>
<path d="M35.8164 31.416C29.9815 28.8799 25.6752 23.7291 24.2246 17.5127C23.7455 15.4593 24.647 13.3309 26.4551 12.2461L26.9482 11.9502C28.802 10.8381 31.1238 10.8624 32.9541 12.0127C34.7824 13.1619 35.4824 15.5129 34.6025 17.4941C33.0333 21.0277 33.0132 25.1037 34.584 28.6406L35.8164 31.416Z" fill="#D9D9D9" stroke="#BBBBBB"/>
<rect x="8.74805" y="9.71973" width="22.528" height="25.6651" rx="11.264" fill="#F2F2F2" stroke="#BBBBBB"/>
<mask id="path-6-inside-1_40000001_51853" fill="white">
<path d="M19.752 7.65039C26.393 7.65055 31.7764 13.0347 31.7764 19.6758V20.3682C31.7764 21.1475 31.7012 21.9094 31.5596 22.6475C27.1188 21.9121 21.226 20.3939 18.54 19.3242C19.2124 20.2057 19.5446 21.2454 18.2568 21.6758C14.8843 22.8024 11.5418 21.562 8.60156 20.9512C8.31062 20.7087 8.01769 20.5081 7.72656 20.3398V19.6758C7.72656 13.0346 13.1108 7.65039 19.752 7.65039Z"/>
</mask>
<path d="M19.752 7.65039C26.393 7.65055 31.7764 13.0347 31.7764 19.6758V20.3682C31.7764 21.1475 31.7012 21.9094 31.5596 22.6475C27.1188 21.9121 21.226 20.3939 18.54 19.3242C19.2124 20.2057 19.5446 21.2454 18.2568 21.6758C14.8843 22.8024 11.5418 21.562 8.60156 20.9512C8.31062 20.7087 8.01769 20.5081 7.72656 20.3398V19.6758C7.72656 13.0346 13.1108 7.65039 19.752 7.65039Z" fill="#E2E2E2"/>
<path d="M19.752 7.65039L19.752 6.65039H19.752V7.65039ZM31.5596 22.6475L31.3962 23.634L32.358 23.7933L32.5417 22.8359L31.5596 22.6475ZM18.54 19.3242L18.91 18.3952L15.5543 17.0588L17.7449 19.9307L18.54 19.3242ZM18.2568 21.6758L18.5737 22.6243L18.5738 22.6242L18.2568 21.6758ZM8.60156 20.9512L7.96138 21.7194L8.15341 21.8794L8.39815 21.9303L8.60156 20.9512ZM7.72656 20.3398H6.72656V20.9169L7.22623 21.2057L7.72656 20.3398ZM19.752 7.65039L19.7519 8.65039C25.8406 8.65054 30.7764 13.5869 30.7764 19.6758H31.7764H32.7764C32.7764 12.4825 26.9453 6.65056 19.752 6.65039L19.752 7.65039ZM31.7764 19.6758H30.7764V20.3682H31.7764H32.7764V19.6758H31.7764ZM31.7764 20.3682H30.7764C30.7764 21.083 30.7074 21.7819 30.5775 22.459L31.5596 22.6475L32.5417 22.8359C32.6949 22.037 32.7764 21.212 32.7764 20.3682H31.7764ZM31.5596 22.6475L31.7229 21.6609C27.3225 20.9322 21.5058 19.4289 18.91 18.3952L18.54 19.3242L18.1701 20.2533C20.9462 21.3588 26.9151 22.892 31.3962 23.634L31.5596 22.6475ZM18.54 19.3242L17.7449 19.9307C17.8823 20.1108 17.9861 20.2783 18.053 20.4229C18.1221 20.5722 18.1332 20.6567 18.1336 20.6836C18.1337 20.6904 18.1367 20.6523 18.1625 20.6205C18.177 20.6027 18.1408 20.6602 17.9399 20.7273L18.2568 21.6758L18.5738 22.6242C19.0168 22.4762 19.422 22.2423 19.7153 21.881C20.02 21.5056 20.1394 21.0717 20.1334 20.6547C20.1224 19.8974 19.7029 19.1999 19.3351 18.7177L18.54 19.3242ZM18.2568 21.6758L17.94 20.7273C16.459 21.222 14.9549 21.2088 13.4166 20.9763C11.8096 20.7333 10.4013 20.3037 8.80498 19.9721L8.60156 20.9512L8.39815 21.9303C9.74204 22.2095 11.4752 22.7055 13.1176 22.9538C14.8287 23.2125 16.6821 23.2562 18.5737 22.6243L18.2568 21.6758ZM8.60156 20.9512L9.24175 20.183C8.90517 19.9025 8.56517 19.6695 8.2269 19.474L7.72656 20.3398L7.22623 21.2057C7.47021 21.3467 7.71607 21.515 7.96138 21.7194L8.60156 20.9512ZM7.72656 20.3398H8.72656V19.6758H7.72656H6.72656V20.3398H7.72656ZM7.72656 19.6758H8.72656C8.72656 13.5869 13.6631 8.65039 19.752 8.65039V7.65039V6.65039C12.5585 6.65039 6.72656 12.4823 6.72656 19.6758H7.72656Z" fill="#BBBBBB" mask="url(#path-6-inside-1_40000001_51853)"/>
<rect x="16.0918" y="23.3359" width="1.56853" height="3.13707" rx="0.784267" fill="#8A8A8A"/>
<rect x="22.3652" y="23.3359" width="1.56853" height="3.13707" rx="0.784267" fill="#8A8A8A"/>
<path d="M17.6592 29.6094V29.6094C18.8356 31.1779 21.1884 31.1779 22.3648 29.6094V29.6094" stroke="#8A8A8A" stroke-linecap="round" stroke-linejoin="round"/>
<path d="M14.5225 38.6289L15.3067 46.4716L19.2281 42.1938" stroke="#CCCCCC" stroke-linecap="round" stroke-linejoin="round"/>
<path d="M25.502 38.6289L24.7177 46.4716L20.7964 42.1938" stroke="#CCCCCC" stroke-linecap="round" stroke-linejoin="round"/>
</g>
</svg>
