<svg width="32" height="32" viewBox="0 0 32 32" fill="none" xmlns="http://www.w3.org/2000/svg">
<path d="M8.00033 28.666C7.62255 28.666 7.30588 28.5382 7.05033 28.2827C6.79477 28.0271 6.66699 27.7105 6.66699 27.3327C6.66699 26.9549 6.79477 26.6382 7.05033 26.3827C7.30588 26.1271 7.62255 25.9993 8.00033 25.9993H24.0003C24.3781 25.9993 24.6948 26.1271 24.9503 26.3827C25.2059 26.6382 25.3337 26.9549 25.3337 27.3327C25.3337 27.7105 25.2059 28.0271 24.9503 28.2827C24.6948 28.5382 24.3781 28.666 24.0003 28.666H8.00033ZM8.93366 23.9993C8.28921 23.9993 7.71699 23.7882 7.21699 23.366C6.71699 22.9438 6.41144 22.4105 6.30033 21.766L4.96699 13.2993C4.92255 13.2993 4.87255 13.3049 4.81699 13.316C4.76144 13.3271 4.71144 13.3327 4.66699 13.3327C4.11144 13.3327 3.63921 13.1382 3.25033 12.7493C2.86144 12.3605 2.66699 11.8882 2.66699 11.3327C2.66699 10.7771 2.86144 10.3049 3.25033 9.91602C3.63921 9.52713 4.11144 9.33268 4.66699 9.33268C5.22255 9.33268 5.69477 9.52713 6.08366 9.91602C6.47255 10.3049 6.66699 10.7771 6.66699 11.3327C6.66699 11.4882 6.65033 11.6327 6.61699 11.766C6.58366 11.8993 6.54477 12.0216 6.50033 12.1327L10.667 13.9993L14.8337 8.29935C14.5892 8.12157 14.3892 7.88824 14.2337 7.59935C14.0781 7.31046 14.0003 6.99935 14.0003 6.66602C14.0003 6.11046 14.1948 5.63824 14.5837 5.24935C14.9725 4.86046 15.4448 4.66602 16.0003 4.66602C16.5559 4.66602 17.0281 4.86046 17.417 5.24935C17.8059 5.63824 18.0003 6.11046 18.0003 6.66602C18.0003 6.99935 17.9225 7.31046 17.767 7.59935C17.6114 7.88824 17.4114 8.12157 17.167 8.29935L21.3337 13.9993L25.5003 12.1327C25.4559 12.0216 25.417 11.8993 25.3837 11.766C25.3503 11.6327 25.3337 11.4882 25.3337 11.3327C25.3337 10.7771 25.5281 10.3049 25.917 9.91602C26.3059 9.52713 26.7781 9.33268 27.3337 9.33268C27.8892 9.33268 28.3614 9.52713 28.7503 9.91602C29.1392 10.3049 29.3337 10.7771 29.3337 11.3327C29.3337 11.8882 29.1392 12.3605 28.7503 12.7493C28.3614 13.1382 27.8892 13.3327 27.3337 13.3327C27.2892 13.3327 27.2392 13.3271 27.1837 13.316C27.1281 13.3049 27.0781 13.2993 27.0337 13.2993L25.7003 21.766C25.5892 22.4105 25.2837 22.9438 24.7837 23.366C24.2837 23.7882 23.7114 23.9993 23.067 23.9993H8.93366ZM8.93366 21.3327H23.067L23.9337 15.766L22.4003 16.4327C21.8225 16.6771 21.2337 16.7216 20.6337 16.566C20.0337 16.4105 19.5448 16.0771 19.167 15.566L16.0003 11.1993L12.8337 15.566C12.4559 16.0771 11.967 16.4105 11.367 16.566C10.767 16.7216 10.1781 16.6771 9.60033 16.4327L8.06699 15.766L8.93366 21.3327Z" fill="url(#paint0_linear_40000001_52161)"/>
<defs>
<linearGradient id="paint0_linear_40000001_52161" x1="2.66699" y1="16.666" x2="29.3337" y2="16.666" gradientUnits="userSpaceOnUse">
<stop stop-color="#8D96F6"/>
<stop offset="1" stop-color="#FF85E0"/>
</linearGradient>
</defs>
</svg>
