<svg width="512" height="512" viewBox="0 0 512 512" fill="none" xmlns="http://www.w3.org/2000/svg">
<circle cx="256" cy="256" r="253.754" fill="#5865F2" stroke="#5865F2" stroke-width="4.49124"/>
<path d="M270.037 351.927C267.313 351.927 265.952 350.63 265.952 348.037V303.684C265.952 301.09 267.313 299.793 270.037 299.793H304.08V288.51H269.648C266.924 288.51 265.562 287.213 265.562 284.62V270.613C265.562 268.02 266.924 266.723 269.648 266.723H332.287C335.01 266.723 336.372 268.02 336.372 270.613V314.383C336.372 316.976 335.01 318.273 332.287 318.273H297.855V330.14H307.776C316.983 330.14 324.505 329.88 330.341 329.362C336.307 328.843 341.754 327.805 346.682 326.249V269.446C346.682 266.723 347.979 265.361 350.573 265.361H372.944C375.537 265.361 376.834 266.723 376.834 269.446V294.152H387.339V268.862C387.339 266.139 388.636 264.777 391.229 264.777H413.795C416.389 264.777 417.686 266.139 417.686 268.862V349.593C417.686 352.187 416.389 353.483 413.795 353.483H391.229C388.636 353.483 387.339 352.187 387.339 349.593V323.331H376.834V348.62C376.834 351.214 375.537 352.511 372.944 352.511H350.573C347.979 352.511 346.682 351.214 346.682 348.62V346.286C342.272 348.101 336.631 349.528 329.758 350.565C322.884 351.473 314.26 351.927 303.885 351.927H270.037ZM271.593 367.879C271.593 365.155 272.89 363.794 275.484 363.794H413.601C416.324 363.794 417.686 365.09 417.686 367.684V418.651C417.686 421.245 416.324 422.542 413.601 422.542H275.678C272.955 422.542 271.593 421.245 271.593 418.651V367.879ZM308.359 385.581V400.949H380.725V385.581H308.359Z" fill="#5865F2"/>
<path d="M103.759 422.542C101.165 422.542 99.8679 421.245 99.8679 418.651V382.08C99.8679 379.356 101.165 377.994 103.759 377.994H202.969V369.824H103.759C101.165 369.824 99.8679 368.527 99.8679 365.933V353.873C99.8679 351.279 101.165 349.982 103.759 349.982H237.401C239.995 349.982 241.292 351.279 241.292 353.873V389.861C241.292 392.454 239.995 393.751 237.401 393.751H138.385V402.505H239.152C241.746 402.505 243.043 403.802 243.043 406.396V418.651C243.043 421.245 241.746 422.542 239.152 422.542H103.759ZM127.686 296.68C130.539 296.68 131.901 298.042 131.771 300.766L130.02 312.437H146.944C157.838 312.437 168.408 311.919 178.653 310.881C189.028 309.844 197.912 307.898 205.304 305.045V268.862C205.304 266.139 206.665 264.777 209.389 264.777H237.207C239.93 264.777 241.292 266.139 241.292 268.862V285.203H250.435C253.029 285.203 254.326 286.565 254.326 289.288V312.243C254.326 314.837 253.029 316.134 250.435 316.134H241.292V336.17C241.292 338.764 239.93 340.061 237.207 340.061H209.389C206.665 340.061 205.304 338.764 205.304 336.17V327.222C198.819 330.334 190.13 332.733 179.237 334.419C168.473 335.976 156.412 336.754 143.054 336.754H98.3117C97.0148 336.754 95.9774 336.43 95.1992 335.781C94.4211 335.133 94.0969 334.095 94.2266 332.669L98.8953 300.377C99.1547 297.912 100.516 296.68 102.98 296.68H127.686ZM92.2812 270.613C92.2812 268.02 93.643 266.723 96.3664 266.723H186.629C189.352 266.723 190.714 268.02 190.714 270.613V286.954C190.714 289.548 189.352 290.844 186.629 290.844H96.3664C93.643 290.844 92.2812 289.548 92.2812 286.954V270.613Z" fill="#5865F2"/>
<path d="M294.635 124.045C297.358 124.045 298.72 125.342 298.72 127.935V187.267C298.72 196.994 299.693 203.867 301.638 207.888C303.713 211.778 307.085 213.723 311.754 213.723C316.552 213.723 319.924 211.778 321.869 207.888C323.944 203.867 324.982 196.994 324.982 187.267V151.474C324.982 145.897 324.528 141.034 323.62 136.884C322.842 132.604 321.415 129.102 319.34 126.379C317.395 123.526 314.672 121.451 311.17 120.154C307.668 118.727 303.324 118.014 298.136 118.014H262.537C259.814 118.014 258.452 116.717 258.452 114.124V92.9197C258.452 90.326 259.814 89.0291 262.537 89.0291H297.164C319.47 89.0291 335.681 94.0869 345.797 104.203C356.042 114.188 361.164 130.335 361.164 152.641V185.906C361.164 196.929 359.997 206.137 357.663 213.529C355.329 220.791 352.022 226.627 347.742 231.037C343.462 235.446 338.275 238.559 332.179 240.374C326.084 242.19 319.275 243.098 311.754 243.098C304.361 243.098 297.618 242.19 291.522 240.374C285.427 238.559 280.24 235.446 275.96 231.037C271.68 226.627 268.373 220.791 266.039 213.529C263.704 206.137 262.537 196.929 262.537 185.906V127.935C262.537 125.342 263.834 124.045 266.428 124.045H294.635ZM380.228 244.07C377.635 244.07 376.338 242.773 376.338 240.18V89.4182C376.338 86.6947 377.635 85.333 380.228 85.333H408.435C411.029 85.333 412.326 86.6947 412.326 89.4182V240.18C412.326 242.773 411.029 244.07 408.435 244.07H380.228Z" fill="#5865F2"/>
<path d="M204.987 160.616C202.263 160.616 200.901 159.32 200.901 156.726V89.4182C200.901 86.6947 202.263 85.333 204.987 85.333H232.804C235.528 85.333 236.89 86.6947 236.89 89.4182V105.759H246.033C248.626 105.759 249.923 107.12 249.923 109.844V132.799C249.923 135.392 248.626 136.689 246.033 136.689H236.89V156.726C236.89 159.32 235.528 160.616 232.804 160.616H204.987ZM96.6328 160.811C94.0391 161.07 92.7422 159.774 92.7422 156.92V138.44C92.7422 135.846 94.0391 134.549 96.6328 134.549C103.247 134.29 109.472 133.642 115.308 132.604C121.273 131.567 126.526 130.14 131.065 128.324C135.734 126.379 139.624 124.174 142.737 121.71C145.849 119.117 147.989 116.199 149.156 112.956H93.7148C91.1211 112.956 89.8242 111.66 89.8242 109.066V91.1689C89.8242 88.5752 91.1211 87.2783 93.7148 87.2783H184.172C186.895 87.2783 188.257 88.64 188.257 91.3635V104.397C188.257 111.66 186.895 118.079 184.172 123.656C181.448 129.232 177.752 134.095 173.083 138.245C168.544 142.266 163.227 145.702 157.132 148.556C151.037 151.279 144.617 153.549 137.873 155.364C131.13 157.05 124.191 158.347 117.059 159.255C109.926 160.033 103.117 160.552 96.6328 160.811ZM132.232 198.55H231.637C234.231 198.55 235.528 199.847 235.528 202.441V210.416C235.528 213.01 234.231 214.307 231.637 214.307H132.232V222.866H234.75C237.344 222.866 238.64 224.163 238.64 226.757V239.207C238.64 241.801 237.344 243.098 234.75 243.098H99.3562C96.7625 243.098 95.4656 241.801 95.4656 239.207V174.428C95.4656 171.834 96.7625 170.538 99.3562 170.538H232.999C235.593 170.538 236.89 171.834 236.89 174.428V186.295C236.89 188.888 235.593 190.185 232.999 190.185H132.232V198.55Z" fill="#5865F2"/>
<circle cx="256" cy="256" r="253.754" fill="#5865F2" stroke="#5865F2" stroke-width="4.49124"/>
<path d="M192.596 249.245C189.103 249.245 187.357 247.582 187.357 244.256V157.941C187.357 154.448 189.103 152.702 192.596 152.702H228.269C231.762 152.702 233.508 154.448 233.508 157.941V178.896H245.233C248.559 178.896 250.222 180.642 250.222 184.135V213.572C250.222 216.898 248.559 218.561 245.233 218.561H233.508V244.256C233.508 247.582 231.762 249.245 228.269 249.245H192.596ZM53.6434 249.495C50.3172 249.827 48.6541 248.164 48.6541 244.505V220.806C48.6541 217.48 50.3172 215.817 53.6434 215.817C62.1252 215.484 70.1081 214.653 77.5921 213.322C85.2423 211.992 91.9779 210.162 97.7988 207.834C103.786 205.339 108.775 202.512 112.767 199.352C116.758 196.026 119.502 192.284 120.999 188.126H49.9014C46.5752 188.126 44.9121 186.463 44.9121 183.137V160.186C44.9121 156.86 46.5752 155.197 49.9014 155.197H165.903C169.395 155.197 171.142 156.943 171.142 160.436V177.15C171.142 186.463 169.395 194.696 165.903 201.847C162.41 208.998 157.67 215.235 151.683 220.557C145.862 225.712 139.044 230.12 131.227 233.778C123.411 237.271 115.178 240.181 106.53 242.51C97.8819 244.672 88.9843 246.335 79.8373 247.499C70.6902 248.497 61.9589 249.162 53.6434 249.495ZM99.2956 297.891H226.772C230.099 297.891 231.762 299.554 231.762 302.88V313.108C231.762 316.435 230.099 318.098 226.772 318.098H99.2956V329.074H230.764C234.09 329.074 235.753 330.737 235.753 334.064V350.029C235.753 353.356 234.09 355.019 230.764 355.019H57.1359C53.8097 355.019 52.1466 353.356 52.1466 350.029V266.957C52.1466 263.631 53.8097 261.968 57.1359 261.968H228.519C231.845 261.968 233.508 263.631 233.508 266.957V282.175C233.508 285.501 231.845 287.164 228.519 287.164H99.2956V297.891Z" fill="white"/>
<path d="M278.496 355.019C275.17 355.019 273.506 353.356 273.506 350.029V303.13C273.506 299.637 275.17 297.891 278.496 297.891H405.723V287.413H278.496C275.17 287.413 273.506 285.75 273.506 282.424V266.957C273.506 263.631 275.17 261.968 278.496 261.968H449.879C453.205 261.968 454.868 263.631 454.868 266.957V313.108C454.868 316.435 453.205 318.098 449.879 318.098H322.901V329.324H452.124C455.45 329.324 457.113 330.987 457.113 334.313V350.029C457.113 353.356 455.45 355.019 452.124 355.019H278.496ZM309.18 193.614C312.839 193.614 314.585 195.361 314.419 198.853L312.174 213.821H333.877C347.847 213.821 361.401 213.156 374.54 211.825C387.845 210.495 399.237 208 408.717 204.341V157.941C408.717 154.448 410.463 152.702 413.955 152.702H449.629C453.122 152.702 454.868 154.448 454.868 157.941V178.896H466.593C469.919 178.896 471.582 180.642 471.582 184.135V213.572C471.582 216.898 469.919 218.561 466.593 218.561H454.868V244.256C454.868 247.582 453.122 249.245 449.629 249.245H413.955C410.463 249.245 408.717 247.582 408.717 244.256V232.781C400.401 236.772 389.258 239.849 375.288 242.011C361.485 244.006 346.018 245.004 328.888 245.004H271.511C269.848 245.004 268.517 244.589 267.519 243.757C266.521 242.925 266.106 241.595 266.272 239.766L272.259 198.354C272.592 195.194 274.338 193.614 277.498 193.614H309.18ZM263.777 160.186C263.777 156.86 265.524 155.197 269.016 155.197H384.768C388.261 155.197 390.007 156.86 390.007 160.186V181.141C390.007 184.467 388.261 186.131 384.768 186.131H269.016C265.524 186.131 263.777 184.467 263.777 181.141V160.186Z" fill="white"/>
</svg>
