<svg width="416" height="304" viewBox="0 0 416 304" fill="none" xmlns="http://www.w3.org/2000/svg" role="img" aria-labelledby="title">
  <title id="title">Chat bubbles (blue)</title>
  <defs>
    <!-- 색상 변수 (필요시 인라인 값으로 직접 변경 가능) -->
    <linearGradient id="bubbleA" x1="60" y1="24" x2="256" y2="200" gradientUnits="userSpaceOnUse">
      <stop offset="0" stop-color="var(--bubble-a-start, #B8DEFF)"></stop>
      <stop offset="1" stop-color="var(--bubble-a-end, #6AB8FF)"></stop>
    </linearGradient>
    <linearGradient id="bubbleB" x1="210" y1="120" x2="392" y2="280" gradientUnits="userSpaceOnUse">
      <stop offset="0" stop-color="var(--bubble-b-start, #6AB8FF)"></stop>
      <stop offset="1" stop-color="var(--bubble-b-end, #2F7EF9)"></stop>
    </linearGradient>
    <filter id="softShadow" x="-20%" y="-20%" width="140%" height="160%" color-interpolation-filters="sRGB">
      <feGaussianBlur in="SourceAlpha" stdDeviation="12" result="blur"></feGaussianBlur>
      <feOffset dy="8" result="offset"></feOffset>
      <feColorMatrix in="offset" type="matrix" values="0 0 0 0 0
                0 0 0 0 0
                0 0 0 0 0
                0 0 0 0.25 0" result="shadow"></feColorMatrix>
      <feBlend in="shadow" in2="SourceGraphic" mode="normal"></feBlend>
    </filter>
  </defs>

  <!-- 뒤쪽 말풍선 -->
  <g filter="url(#softShadow)">
    <path d="M44 36a24 24 0 0 1 24-24h212c13.255 0 24 10.745 24 24v104c0 13.255-10.745 24-24 24H134l-32 24c-2.8 2.1-6.8 0.06-6.8-3.4V164H68a24 24 0 0 1-24-24V36Z" fill="url(#bubbleA)"></path>
  </g>

  <!-- 점 3개 -->
  <g fill="white" opacity="0.95">
    <circle cx="112" cy="92" r="10"></circle>
    <circle cx="156" cy="92" r="10"></circle>
    <circle cx="200" cy="92" r="10"></circle>
  </g>

  <!-- 앞쪽 말풍선 -->
  <g filter="url(#softShadow)">
    <path d="M224 128a24 24 0 0 1 24-24h120c13.255 0 24 10.745 24 24v88c0 13.255-10.745 24-24 24h-58l-18 20c-2.5 2.8-7.2 1.1-7.2-2.6V240h-36a24 24 0 0 1-24-24v-88Z" fill="url(#bubbleB)"></path>
  </g>
</svg>
