<svg width="533" height="435" viewBox="0 0 533 435" fill="none" xmlns="http://www.w3.org/2000/svg">
<path d="M0 334.982C0 224.525 89.5431 134.982 200 134.982H332.822C443.278 134.982 532.822 224.525 532.822 334.982V394.933C532.822 417.024 514.913 434.933 492.822 434.933H39.9999C17.9086 434.933 0 417.024 0 394.933V334.982Z" fill="#4D59D5"/>
<path d="M48.5862 121.335C49.2141 119.556 51.7301 119.556 52.3581 121.335L55.5009 130.239C55.7022 130.809 56.1508 131.258 56.721 131.459L65.6243 134.603C67.4031 135.231 67.4031 137.747 65.6243 138.375L56.721 141.518C56.1508 141.72 55.7022 142.168 55.5009 142.739L52.3581 151.642C51.7301 153.421 49.2142 153.421 48.5862 151.642L45.4433 142.739C45.242 142.168 44.7935 141.72 44.2233 141.518L35.32 138.375C33.5412 137.747 33.5412 135.231 35.32 134.603L44.2233 131.459C44.7935 131.258 45.242 130.809 45.4433 130.239L48.5862 121.335Z" fill="#FF4CD2"/>
<path d="M465.605 33.343C466.233 31.5639 468.749 31.5639 469.377 33.343L474.345 47.4195C474.547 47.9897 474.995 48.4383 475.566 48.6397L489.641 53.6095C491.419 54.2376 491.419 56.7532 489.641 57.3813L475.565 62.3512C474.995 62.5526 474.547 63.0011 474.345 63.5714L469.377 77.6479C468.749 79.4269 466.233 79.4269 465.605 77.6479L460.636 63.5714C460.435 63.0011 459.986 62.5526 459.416 62.3512L445.341 57.3813C443.562 56.7532 443.562 54.2376 445.341 53.6095L459.416 48.6397C459.986 48.4383 460.435 47.9897 460.636 47.4195L465.605 33.343Z" fill="#4D59D5"/>
<ellipse cx="194.479" cy="42.4934" rx="4.49849" ry="4.49925" fill="#7681F1"/>
<path d="M154.992 2C166.034 2 174.985 10.9521 174.985 21.9961C174.985 33.0402 166.034 41.9932 154.992 41.9932C143.951 41.9929 135 33.0401 135 21.9961C135 10.9522 143.951 2.00024 154.992 2Z" fill="#FFD0F3" stroke="#6571E5" stroke-width="3.99958"/>
<rect x="153.232" y="6.22656" width="2.363" height="17.8542" rx="1.1815" fill="#3396FF"/>
<rect width="2.3187" height="11.3739" rx="1.11735" transform="matrix(0.704074 0.710127 -0.710008 0.704194 161.728 15.3301)" fill="#3396FF"/>
<ellipse cx="2.09406" cy="2.09442" rx="2.09406" ry="2.09442" transform="matrix(1 9.62919e-07 9.62593e-07 1 152.712 21.3027)" fill="#3396FF"/>
<g clip-path="url(#clip0_40002083_10985)">
<path d="M327.521 264.445C317.855 270.233 300.632 277.483 283.031 270.031L271.654 265.214L294.453 239.704C276.261 219.679 266.197 193.607 266.226 166.575C266.255 139.544 276.375 113.493 294.61 93.5077C312.846 73.5226 337.887 61.0377 364.848 58.4899C391.808 55.9421 418.752 63.5143 440.421 79.7283C462.09 95.9424 476.927 119.635 482.038 146.181C487.149 172.727 482.166 200.221 468.062 223.297C453.958 246.374 431.745 263.375 405.759 270.984C379.772 278.593 351.878 276.262 327.521 264.448L327.521 264.445ZM283.84 166.516C283.789 178.977 286.323 191.314 291.281 202.75C296.239 214.186 303.514 224.475 312.649 232.968L318.938 238.868L304.592 254.92C312.064 253.407 318.573 249.372 321.874 247.028L326.402 243.812L331.272 246.483C344.734 253.84 359.835 257.696 375.183 257.695C425.551 257.695 466.528 216.793 466.528 166.516C466.528 116.24 425.551 75.3375 375.184 75.3375C324.816 75.3375 283.839 116.238 283.839 166.516H283.84Z" fill="#090814"/>
<path d="M274.983 166.516C274.992 144.604 282.212 123.302 295.533 105.885C308.853 88.469 327.538 75.9032 348.711 70.1206C369.885 64.3379 392.375 65.6587 412.723 73.8797C433.071 82.1007 450.15 96.7667 461.334 115.622C472.517 134.477 477.184 156.478 474.619 178.239C472.053 200.001 462.397 220.319 447.134 236.068C431.872 251.817 411.849 262.125 390.144 265.406C368.44 268.688 346.257 264.761 327.007 254.23C320.079 259.15 303.183 268.961 286.49 261.894L306.585 239.41C296.596 230.069 288.637 218.778 283.201 206.239C277.764 193.699 274.967 180.179 274.983 166.516Z" fill="#1E2939"/>
<path d="M458.315 166.733C458.314 141.738 448.937 117.648 432.03 99.2094C415.124 80.7704 391.914 69.3182 366.971 67.108C369.89 66.8526 372.842 66.7148 375.827 66.7148C388.985 66.7148 402.015 69.3019 414.172 74.3283C426.329 79.3547 437.375 86.722 446.679 96.0095C455.984 105.297 463.365 116.323 468.4 128.458C473.436 140.593 476.027 153.599 476.027 166.733C476.027 179.868 473.436 192.874 468.4 205.008C463.365 217.143 455.984 228.169 446.679 237.457C437.375 246.744 426.329 254.112 414.172 259.138C402.015 264.164 388.985 266.751 375.827 266.751C372.846 266.751 369.899 266.611 366.984 266.357C391.925 264.143 415.131 252.69 432.035 234.252C448.938 215.813 458.314 191.726 458.315 166.733Z" fill="#172333"/>
<path d="M144.282 403.392C119.244 403.404 94.9626 394.826 75.5068 379.095C56.0511 363.364 42.6035 341.436 37.4178 316.985C32.232 292.535 35.6232 267.048 47.0231 244.797C58.423 222.545 77.1387 204.881 100.034 194.765C122.929 184.648 148.612 182.694 172.778 189.23C196.945 195.766 218.126 210.395 232.773 230.665C247.42 250.935 254.641 275.614 253.228 300.567C251.814 325.519 241.852 349.228 225.009 367.721L247.808 393.232L236.43 398.05C218.83 405.501 201.608 398.25 191.94 392.464C177.085 399.652 160.791 403.388 144.282 403.392ZM144.282 203.355C93.9145 203.355 52.9373 244.258 52.9373 294.533C52.9373 344.809 93.9145 385.712 144.282 385.712C159.633 385.713 174.738 381.856 188.203 374.496L193.065 371.829L197.594 375.045C200.894 377.388 207.403 381.424 214.876 382.937L200.53 366.885L206.818 360.985C215.953 352.492 223.228 342.203 228.186 330.767C233.144 319.331 235.678 306.994 235.628 294.533C235.628 244.257 194.65 203.354 144.283 203.354L144.282 203.355Z" fill="#090814"/>
<path d="M244.483 294.533C244.474 272.621 237.254 251.319 223.933 233.903C210.612 216.487 191.928 203.921 170.755 198.138C149.581 192.356 127.091 193.676 106.742 201.897C86.3941 210.118 69.3151 224.784 58.132 243.64C46.949 262.495 42.2812 284.495 44.8466 306.257C47.4121 328.019 57.0687 348.336 72.3312 364.085C87.5937 379.834 107.617 390.142 129.321 393.424C151.025 396.705 173.209 392.779 192.459 382.248C199.386 387.167 216.282 396.979 232.975 389.911L212.881 367.428C222.869 358.086 230.829 346.795 236.265 334.256C241.701 321.717 244.498 308.196 244.483 294.533Z" fill="#1E2939"/>
<path d="M61.7933 294.028C61.7948 269.032 71.172 244.943 88.0784 226.504C104.985 208.065 128.195 196.613 153.138 194.403C150.218 194.147 147.267 194.01 144.282 194.01C117.707 194.01 92.2207 204.547 73.4294 223.304C54.6381 242.061 44.0813 267.502 44.0813 294.028C44.0813 320.555 54.6381 345.995 73.4294 364.752C92.2207 383.509 117.707 394.046 144.282 394.046C147.262 394.046 150.21 393.906 153.124 393.652C128.184 391.438 104.977 379.985 88.0739 361.547C71.1704 343.108 61.7949 319.021 61.7933 294.028Z" fill="#172333"/>
<path d="M398.707 134.739C392.151 123.682 379.18 123.167 379.18 123.167C379.18 123.167 366.541 121.553 358.434 138.394C350.877 154.091 340.447 169.246 356.754 172.921L359.7 163.769L361.524 173.602C363.846 173.769 366.175 173.809 368.502 173.721C385.966 173.158 402.598 173.886 402.063 167.63C401.351 159.314 405.015 145.379 398.707 134.739Z" fill="#090814"/>
<path d="M355.824 231.574C355.631 232.79 355.351 233.991 354.987 235.167C354.577 236.319 353.943 237.384 353.568 238.547C352.372 242.255 354.03 246.39 356.678 249.252C358.973 251.724 361.935 253.48 365.208 254.309C367.618 254.824 370.076 255.082 372.54 255.079C379.353 255.307 386.346 255.516 392.807 253.329C394.847 252.621 396.818 251.728 398.694 250.659C399.286 250.378 399.808 249.968 400.221 249.459C400.654 248.714 400.846 247.854 400.773 246.996C400.758 244.112 400.173 241.244 400.312 238.363C400.389 236.767 400.688 235.173 400.541 233.582C400.337 231.775 399.579 230.076 398.37 228.716C397.162 227.356 395.561 226.402 393.789 225.985C391.957 225.592 390.057 225.806 388.191 225.985C383.35 226.449 378.488 226.666 373.625 226.635C368.656 226.604 363.717 225.847 358.772 225.767C357.31 225.744 357.341 226.194 356.874 227.606C356.445 228.906 356.094 230.231 355.824 231.573V231.574Z" fill="#090814"/>
<path d="M369.925 160.364C369.777 161.63 369.351 162.848 368.677 163.931C367.812 165.111 366.403 165.786 365.471 166.915C364.071 168.615 363.99 171.007 363.982 173.207C363.977 175.234 364.018 177.396 365.151 179.079C365.957 180.125 366.957 181.005 368.097 181.673C372.345 184.53 376.934 187.438 382.055 187.532C384.177 187.571 386.452 187.024 387.847 185.429C388.45 184.68 388.924 183.836 389.25 182.932C390.559 179.71 391.353 176.302 391.602 172.834C391.791 171.204 391.638 169.552 391.154 167.984C390.532 166.252 389.274 164.828 388.443 163.187C387.46 161.235 387.1 159.029 387.412 156.867C387.454 156.715 387.441 156.553 387.376 156.41C387.308 156.333 387.223 156.272 387.127 156.234C387.032 156.195 386.928 156.179 386.826 156.187L376.672 155.457C375.726 155.41 374.785 155.303 373.853 155.135C373.305 155.024 371.86 154.248 371.338 154.455C370.377 154.836 370.123 159.329 369.925 160.364Z" fill="#ED9DA0"/>
<path d="M379.636 161.723C387.863 161.723 394.533 155.066 394.533 146.854C394.533 138.642 387.863 131.984 379.636 131.984C371.409 131.984 364.74 138.642 364.74 146.854C364.74 155.066 371.409 161.723 379.636 161.723Z" fill="#ED9DA0"/>
<path d="M372.015 180.158C372.751 181.008 373.638 181.716 374.631 182.245C375.667 182.672 376.779 182.883 377.9 182.866C380.585 182.941 383.496 182.45 385.364 180.523C387.772 178.039 387.693 174.032 389.58 171.134C389.732 170.872 389.94 170.645 390.188 170.47C390.505 170.298 390.863 170.216 391.223 170.233C393.607 170.21 395.683 171.754 397.557 173.224C398.439 173.83 399.196 174.6 399.786 175.491C400.157 176.213 400.41 176.989 400.538 177.79C401.468 182.321 401.769 186.954 402.068 191.57C402.233 194.12 402.399 196.672 402.386 199.228C402.345 207.645 400.386 215.921 398.436 224.111C398.184 225.166 397.841 226.345 396.88 226.851C396.451 227.043 395.991 227.155 395.522 227.182C389.95 227.93 384.344 228.396 378.724 228.578C376.531 228.611 374.339 228.558 372.148 228.419C371.77 228.414 371.396 228.349 371.04 228.226C370.556 227.994 370.14 227.642 369.832 227.202C366.792 223.379 366.612 218.092 366.632 213.21C366.679 201.275 367.106 189.349 367.913 177.433C367.98 176.449 367.995 175.255 367.284 174.481C368.666 176.526 370.25 178.428 372.013 180.158L372.015 180.158Z" fill="#6C63FF"/>
<path d="M368.859 162.989C368.356 163.898 364.647 166.156 363.931 166.909C359.929 171.119 352.627 170.961 348.968 175.47C347.68 177.056 347.011 179.049 346.519 181.031C345.824 183.831 345.452 186.89 346.618 189.533C347.739 192.076 350.1 193.834 351.703 196.105C353.463 198.599 354.254 201.628 355.013 204.583C355.573 206.764 356.137 209.001 355.919 211.243C355.671 213.792 354.435 216.126 353.706 218.582C352.976 221.037 352.85 223.961 354.537 225.891C355.776 227.308 357.721 227.87 359.578 228.186C361.958 228.543 364.358 228.752 366.764 228.811C368.888 228.904 371.229 228.925 372.862 227.563C374.151 226.491 374.711 224.751 374.783 223.077C374.763 221.402 374.597 219.732 374.288 218.086C374.059 216.364 373.975 214.628 373.902 212.894C373.575 205.111 373.53 197.324 373.768 189.532C373.887 187.913 373.808 186.285 373.531 184.684C373.073 182.6 371.947 180.737 371.005 178.822C369.124 175.214 368.272 171.16 368.543 167.102C368.828 162.931 370.65 159.754 368.859 162.989Z" fill="#6C63FF"/>
<path d="M389.778 163.305C390.545 164.091 393.148 164.35 394.123 164.856C395.04 165.279 395.997 165.61 396.979 165.843C400.535 166.867 403.918 168.417 407.014 170.441C407.658 170.816 408.226 171.307 408.692 171.888C409.183 172.685 409.499 173.576 409.62 174.504C410.193 176.846 410.479 179.248 410.47 181.658C410.355 184.212 409.585 186.687 408.821 189.124L405.965 198.238C403.833 205.041 401.688 211.912 401.088 219.015C400.756 222.952 400.904 226.914 401.527 230.816C401.586 231.006 401.603 231.206 401.579 231.403C401.554 231.6 401.487 231.789 401.383 231.959C401.195 232.144 400.947 232.258 400.684 232.28C399.305 232.495 397.971 231.794 396.722 231.172C392.905 229.276 388.831 227.945 384.629 227.222C386.271 224.854 387.538 222.247 388.385 219.493C388.866 217.745 389.245 215.971 389.52 214.179L390.849 206.508C391.389 203.705 391.77 200.873 391.988 198.026C392.089 196.958 392.026 195.881 391.803 194.831C391.497 193.832 391.091 192.867 390.59 191.949C388.4 187.403 387.373 182.214 388.235 177.244C388.612 175.068 389.344 172.891 389.036 170.704C388.742 168.602 389.047 166.968 388.507 164.888C386.292 156.345 388.336 161.825 389.778 163.305Z" fill="#6C63FF"/>
<path d="M348.93 182.657C347.932 184.724 346.263 186.485 345.695 188.71C345.474 189.749 345.379 190.812 345.413 191.874C345.314 193.474 345.473 195.08 345.883 196.631C346.2 197.612 346.716 198.517 347.085 199.478C347.603 200.822 347.834 202.258 347.762 203.696C347.662 205.688 346.984 207.621 346.931 209.615C346.847 212.75 348.3 215.697 349.718 218.496C350.075 217.614 350.62 216.82 351.316 216.171C352.012 215.521 352.842 215.032 353.748 214.736C354.653 214.44 355.612 214.345 356.559 214.458C357.505 214.57 358.415 214.888 359.225 215.389C359.549 214.99 359.703 214.48 359.653 213.97C359.758 210.333 359.859 206.695 359.956 203.058C360.11 197.433 360.256 191.733 358.96 186.257C358.375 183.785 357.464 181.322 355.794 179.403C354.914 178.394 351.93 175.733 350.487 176.865C349.838 177.374 349.989 178.759 349.887 179.46C349.732 180.569 349.408 181.648 348.927 182.66L348.93 182.657Z" fill="#6C63FF"/>
<path d="M410.762 176.699C411.164 178.19 411.336 179.733 411.272 181.276C411.292 184.42 411.25 187.563 411.147 190.705C411.163 192.317 410.956 193.924 410.533 195.48C410.211 196.492 409.714 197.441 409.38 198.452C408.383 201.474 408.928 204.752 409.013 207.933C409.074 208.963 408.986 209.996 408.752 211C408.225 212.972 406.81 214.566 405.822 216.353C404.885 218.05 404.318 219.953 403.198 221.535C402.078 223.117 400.138 224.373 398.258 223.887C396.834 223.519 395.822 222.26 395.122 220.968C393.595 218.128 393.072 214.857 393.639 211.683C394.343 207.822 396.616 204.397 397.433 200.559C398.558 195.289 396.848 189.85 396.899 184.462C396.876 183.617 396.991 182.775 397.239 181.967C397.669 180.736 398.592 179.753 399.445 178.767C400.511 177.532 401.501 176.234 402.41 174.881C403.02 173.972 403.849 171.634 404.931 171.44C407.346 171.008 410.163 174.836 410.762 176.699Z" fill="#6C63FF"/>
<path d="M336.392 229.232C335.056 228.896 333.679 228.75 332.302 228.798C330.855 228.878 329.442 229.264 328.156 229.931C326.871 230.598 325.742 231.531 324.845 232.667C323.949 233.804 323.305 235.117 322.956 236.521C322.608 237.925 322.563 239.387 322.824 240.81C323.158 242.351 323.703 243.839 324.445 245.231C325.53 247.428 326.831 249.62 328.839 251.028C330.049 251.802 331.351 252.421 332.716 252.87L343.293 256.847C344.849 257.432 346.405 258.018 347.976 258.562C355.87 261.285 364.1 262.918 372.437 263.416C374.974 263.653 377.532 263.524 380.032 263.032C380.636 262.953 381.19 262.654 381.587 262.193C381.788 261.843 381.907 261.452 381.935 261.05L382.586 256.502C382.731 255.869 382.711 255.209 382.528 254.585C382.146 253.852 381.526 253.269 380.77 252.931C373.817 248.945 365.699 246.746 359.846 241.273C358.468 239.985 357.315 237.944 355.641 237.069C353.743 236.077 351.507 235.511 349.545 234.596C345.258 232.595 341.041 230.298 336.392 229.232Z" fill="#090814"/>
<path opacity="0.1" d="M346.95 235.362C350.689 236.531 366.473 244.632 369.177 247.461C368.814 247.591 356.511 240.709 356.142 240.598C352.758 239.671 349.444 238.506 346.225 237.112C345.584 236.816 342.06 235.425 342.218 234.618C342.4 233.704 346.287 235.154 346.95 235.362Z" fill="black"/>
<path d="M393.585 265.773C393.796 265.79 394.007 265.729 394.177 265.602C394.252 265.506 394.307 265.397 394.338 265.28C394.37 265.163 394.379 265.041 394.363 264.921L394.346 258.725C392.561 257.877 390.564 257.604 388.605 257.343L379.461 256.123C379.671 256.151 378.03 260.054 378.283 260.575C378.726 261.494 382.112 262.307 383.068 262.741C386.392 264.246 389.845 265.903 393.585 265.773Z" fill="#ED9DA0"/>
<path d="M364.9 258.701C363.173 258.975 361.246 259.215 360.128 260.559C358.71 262.26 359.314 264.796 359.99 266.902C360.032 267.174 360.128 267.435 360.272 267.669C360.416 267.903 360.606 268.106 360.83 268.266C361.054 268.426 361.308 268.539 361.577 268.599C361.846 268.66 362.124 268.665 362.395 268.616C363.969 268.716 365.645 268.794 367.021 268.023C367.644 267.612 368.244 267.167 368.818 266.69C369.832 266.016 370.947 265.507 372.122 265.183C374.28 264.505 376.502 264.048 378.753 263.819C379.64 263.779 380.518 263.625 381.365 263.361C381.789 263.225 382.175 262.994 382.494 262.684C382.813 262.375 383.056 261.997 383.205 261.578C383.524 260.453 382.868 259.305 382.239 258.317C381.515 257.024 380.574 255.865 379.459 254.888C377.755 253.567 376.912 254.581 375.196 255.427C371.948 257.027 368.477 258.131 364.9 258.702L364.9 258.701Z" fill="#ED9DA0"/>
<path d="M360.388 260.252L349.426 257.018C348.111 256.561 346.737 256.295 345.347 256.229C344.65 256.2 343.956 256.32 343.31 256.581C342.664 256.842 342.081 257.237 341.6 257.741C340.75 258.737 340.507 260.098 340.295 261.389L339.841 264.151C339.539 265.543 339.454 266.973 339.588 268.392C339.661 269.101 339.894 269.784 340.271 270.389C340.648 270.995 341.159 271.507 341.763 271.886C343.28 272.712 345.141 272.308 346.832 271.963C350.252 271.265 353.73 270.893 357.22 270.851C358.532 270.835 359.911 270.851 361.068 270.238C361.742 269.84 362.307 269.284 362.717 268.618C363.126 267.952 363.366 267.196 363.415 266.417C363.631 264.059 362.843 260.978 360.388 260.252Z" fill="#2F2E41"/>
<path d="M397.897 257.435C399.318 257.187 400.572 256.38 401.934 255.905C403.85 255.235 405.927 255.235 407.958 255.243C408.705 255.175 409.455 255.325 410.118 255.675C411.012 256.269 411.242 257.459 411.394 258.52L412.31 264.927C412.556 266.122 412.581 267.352 412.385 268.556C412.279 269.158 412.013 269.719 411.616 270.183C411.218 270.647 410.703 270.996 410.125 271.194C408.694 271.566 407.286 270.652 405.933 270.051C402.55 268.551 398.618 268.934 395.091 267.812C394.754 267.745 394.435 267.607 394.155 267.407C393.876 267.207 393.641 266.951 393.469 266.654C393.348 266.298 393.305 265.921 393.343 265.547C393.403 263.49 392.968 260.676 393.589 258.708C394.148 256.938 396.31 257.435 397.897 257.435Z" fill="#2F2E41"/>
<path d="M421.094 226.651C423.285 226.102 425.555 225.948 427.8 226.193C429.592 226.391 431.44 226.888 432.749 228.127C434.342 229.635 434.854 231.966 434.896 234.157C434.966 238.52 433.516 242.773 430.794 246.188C430.129 247.051 429.337 247.811 428.447 248.441C427.487 249.04 426.463 249.532 425.395 249.908L401.71 259.233C395.479 261.687 389.227 264.148 382.727 265.764C382.549 265.85 382.356 265.899 382.159 265.909C381.962 265.919 381.765 265.889 381.58 265.822C381.394 265.755 381.224 265.652 381.079 265.518C380.934 265.384 380.818 265.223 380.736 265.043C378.661 262.085 376.92 258.906 375.545 255.565C375.48 255.485 375.435 255.391 375.414 255.291C375.393 255.191 375.396 255.087 375.424 254.988C375.452 254.889 375.503 254.798 375.573 254.724C375.644 254.649 375.731 254.592 375.828 254.558L392.58 244.95C393.809 244.311 394.954 243.524 395.99 242.607C396.714 241.906 397.307 241.083 397.741 240.174C398.088 239.45 398.12 237.741 398.564 237.207C398.998 236.683 400.484 236.641 401.17 236.435C402.138 236.139 403.085 235.781 404.007 235.364C407.755 233.691 411.092 231.259 414.684 229.3C416.699 228.15 418.852 227.26 421.092 226.652L421.094 226.651Z" fill="#090814"/>
<path opacity="0.1" d="M411.597 233.828C408.719 235.986 404.992 237.969 402.14 240.184C401.166 240.94 384.937 250.047 384.708 251.257C387.369 251.704 404.321 239.866 406.749 238.685C409.134 237.419 411.381 235.911 413.455 234.184C413.998 233.763 416.299 232.496 414.74 232.025C413.86 231.76 412.245 233.396 411.597 233.828Z" fill="black"/>
<path d="M391.793 163.514H366.528C365.502 163.514 364.517 163.921 363.792 164.645C363.066 165.37 362.658 166.352 362.658 167.377V168.792H362.384V171.955H362.658V174.17H362.384V176.068H362.658V199.412C362.658 200.437 363.066 201.419 363.792 202.144C364.517 202.868 365.502 203.275 366.528 203.275H391.793C392.82 203.275 393.804 202.868 394.53 202.144C395.255 201.419 395.663 200.437 395.663 199.412V167.377C395.663 166.869 395.563 166.367 395.369 165.898C395.174 165.43 394.889 165.004 394.529 164.645C394.17 164.286 393.743 164.002 393.274 163.808C392.804 163.613 392.301 163.514 391.793 163.514Z" fill="#D0CDE1"/>
<path d="M395.809 133.675L382.994 126.975L365.298 129.718L361.637 145.858L370.751 145.508L373.297 139.579V145.411L377.502 145.249L379.943 135.808L381.469 145.858L396.419 145.554L395.809 133.675Z" fill="#090814"/>
<path d="M352.282 224.562C352.862 225.546 353.686 226.364 354.674 226.937C355.323 227.233 356.03 227.377 356.743 227.358C357.455 227.339 358.154 227.158 358.786 226.828C360.048 226.152 361.08 225.118 361.753 223.856C363.146 221.399 363.434 218.464 363.261 215.648C363.087 212.833 362.484 210.06 362.218 207.252C362.024 205.21 362.009 203.157 361.993 201.106C361.945 200.675 362.036 200.239 362.252 199.863C362.624 199.493 363.106 199.252 363.626 199.177C366.436 198.343 368.302 195.714 369.637 193.109C370.53 191.37 371.307 189.469 371.135 187.522C370.962 185.575 369.561 183.615 367.613 183.416C366.01 183.252 364.524 184.27 363.366 185.392C360.444 188.241 358.566 191.987 358.034 196.029C357.78 198.009 357.853 200.042 357.313 201.963C356.162 206.066 352.559 208.582 350.763 212.273C348.786 216.344 349.878 220.963 352.282 224.562Z" fill="#ED9DA0"/>
<path d="M405.307 208.887C404.897 209.838 404.3 210.698 403.552 211.416C402.804 212.134 401.919 212.695 400.95 213.065C399.746 213.548 398.418 213.629 397.163 213.297C396.541 213.125 395.967 212.812 395.486 212.382C395.005 211.952 394.63 211.418 394.389 210.82C394.197 210.218 394.092 209.591 394.076 208.959C393.896 206.192 393.966 203.341 394.972 200.757C395.36 199.761 395.884 198.814 396.191 197.791C396.492 196.607 396.645 195.391 396.649 194.17L396.98 186.621C397.034 186.072 396.995 185.519 396.865 184.984C396.535 183.891 395.512 183.182 394.575 182.53C392.308 180.957 390.069 179.121 388.971 176.593C388.594 175.833 388.459 174.975 388.584 174.136C388.894 172.637 390.409 171.666 391.904 171.339C392.884 171.125 393.898 171.112 394.884 171.299C395.869 171.487 396.807 171.871 397.639 172.43C398.472 172.989 399.183 173.71 399.729 174.55C400.275 175.39 400.645 176.332 400.816 177.319C400.965 178.171 400.962 179.041 401.049 179.901C401.233 181.727 401.814 183.486 402.177 185.284C403.071 189.713 402.608 194.291 403.494 198.72C404.237 202.42 407.025 204.836 405.307 208.887Z" fill="#ED9DA0"/>
<path d="M379.499 180.497C381.249 180.497 382.668 179.081 382.668 177.334C382.668 175.586 381.249 174.17 379.499 174.17C377.749 174.17 376.33 175.586 376.33 177.334C376.33 179.081 377.749 180.497 379.499 180.497Z" fill="#6C63FF"/>
<path d="M35.3495 291.038C40.5131 291.038 44.699 286.86 44.699 281.706C44.699 276.551 40.5131 272.373 35.3495 272.373C30.1859 272.373 26 276.551 26 281.706C26 286.86 30.1859 291.038 35.3495 291.038Z" fill="#090814"/>
<path d="M69.2409 309.412L64.5315 304.84L55.075 307.772L55.9829 318.702L75.4268 317.801L69.4527 309.701L69.2409 309.412Z" fill="#ED9DA0"/>
<path d="M58.9412 309.317C67.2893 309.317 74.0569 302.562 74.0569 294.229C74.0569 285.896 67.2893 279.141 58.9412 279.141C50.593 279.141 43.8254 285.896 43.8254 294.229C43.8254 302.562 50.593 309.317 58.9412 309.317Z" fill="#ED9DA0"/>
<path d="M152.781 328.777C152.781 328.777 171.351 360.632 175.77 365.415C177.872 367.768 180.111 369.996 182.476 372.086C182.476 372.086 180.397 378.965 177.088 378.719C175.203 378.605 173.354 378.149 171.633 377.374C171.633 377.374 170.155 373.552 167.579 371.876C165.003 370.2 143.956 349.532 144.45 342.926C144.944 336.32 152.781 328.777 152.781 328.777Z" fill="#090814"/>
<path d="M86.6472 374.236C86.6472 374.236 106.447 389.576 133.356 375.162L135.675 373.459C135.675 373.459 131.761 382.246 131.398 384.629C130.978 387.391 120.789 403.573 119.126 404.349C117.464 405.124 117.097 405.839 117.097 405.839L124.153 413.591L126.762 411.674C126.762 411.674 136.934 397.288 139.91 394.657C142.885 392.025 157.06 364.884 157.06 364.884C157.06 364.884 162.48 354.658 148.954 353.889C135.428 353.12 129.203 356.8 129.203 356.8L105.198 360.606L86.6472 374.236Z" fill="#090814"/>
<path d="M182.705 370.58L192.72 377.495C192.72 377.495 205.497 381.49 197.626 384.149C189.756 386.808 169.016 387.77 168.543 384.101C168.071 380.433 169.362 374.658 170.396 374.974C171.431 375.29 178.615 377.153 182.705 370.58Z" fill="#2F2E41"/>
<path d="M127.648 409.299L129.502 419.46C129.502 419.46 134.772 429.522 128.444 426.4C122.116 423.278 109.078 411.419 111.003 408.933C112.928 406.447 117.177 403.75 117.609 404.561C118.041 405.371 121.234 410.795 127.648 409.299Z" fill="#2F2E41"/>
<path d="M108.552 363.944C108.552 363.944 95.0922 379.629 86.9209 375.819C78.7496 372.009 45.3185 327.874 49.1359 319.72C52.9534 311.566 54.2312 313.299 54.2312 313.299L71.4926 314.893L66.5262 306.944C67.2279 306.466 68.0853 306.27 68.9257 306.397C69.766 306.525 70.5268 306.965 71.0547 307.63C73.2645 310.021 82.136 315.993 85.2263 324.428C88.3167 332.863 97.3919 332.443 97.3919 332.443L108.552 363.944Z" fill="#6C63FF"/>
<path d="M162.904 331.598L139.573 356.32L118.673 319.486L138.542 295.523L162.904 331.598Z" fill="#3F3D56"/>
<path d="M161.144 331.334L140.071 353.058L120.976 319.582L138.488 297.574L161.144 331.334Z" fill="white"/>
<path d="M138.43 355.377L139.575 356.322L138.842 357.75L106.218 367.443L105.909 366.327L107.393 364.795L138.43 355.377Z" fill="#B3B3B3"/>
<path d="M139.863 356.108L106.08 366.651L85.4856 327.808L118.673 319.486L139.863 356.108Z" fill="#D0CDE1"/>
<path d="M137.32 350.839L135.87 351.904L119.783 324.024L121.443 323.248L137.32 350.839Z" fill="#3F3D56"/>
<path d="M133.994 352.39L119.703 356.643L103.479 327.971L117.62 324.723L133.994 352.39Z" fill="#3F3D56"/>
<path d="M93.7337 331.117L96.6924 330.281C96.6924 330.281 113.194 328.419 113.434 333.596C113.674 338.772 94.4774 336.37 94.4774 336.37L91.9177 332.898L93.7337 331.117Z" fill="#ED9DA0"/>
<path d="M108.206 354.385L112.325 352.698C112.325 352.698 124.757 347.134 121.19 343.509C117.623 339.885 106.625 346.182 106.625 346.182L104.52 348.174L108.206 354.385Z" fill="#ED9DA0"/>
<path d="M104.536 346.377C104.536 346.377 111.242 353.048 109.716 354.615C108.19 356.182 83.1687 376.792 76.9691 370.197C70.7695 363.603 40.5466 330.492 52.3058 327.653C64.0649 324.814 67.1719 331.452 67.1719 331.452L82.6952 357.962L104.536 346.377Z" fill="#6C63FF"/>
<path d="M84.4575 326.111L95.473 329.84L95.2932 337.778L83.6428 336.523L84.4575 326.111Z" fill="#6C63FF"/>
<path opacity="0.2" d="M94.3851 350.488L82.5172 357.422L68.9575 336.605L82.0466 353.753L94.3851 350.488Z" fill="black"/>
<path d="M52.3063 307.819C62.2446 307.819 70.3012 299.777 70.3012 289.857C70.3012 279.936 62.2446 271.895 52.3063 271.895C42.3681 271.895 34.3115 279.936 34.3115 289.857C34.3115 299.777 42.3681 307.819 52.3063 307.819Z" fill="#090814"/>
<path d="M149.535 333.167L136.935 314.766L142.276 308.166L155.369 327.095L149.535 333.167Z" fill="#6C63FF"/>
<path d="M149.182 340.565L130 312.729L130.946 311.586L150.039 339.488L149.182 340.565Z" fill="#E6E6E6"/>
<path d="M146.71 343.272L127.528 315.436L128.474 314.293L147.567 342.196L146.71 343.272Z" fill="#E6E6E6"/>
<path d="M144.604 345.266L125.422 317.43L126.368 316.287L145.461 344.19L144.604 345.266Z" fill="#E6E6E6"/>
<path d="M60.2749 277.863H65.8413C68.6597 277.864 71.3624 278.982 73.3551 280.971C75.3477 282.961 76.4671 285.659 76.4669 288.472H60.2749V277.863Z" fill="#090814"/>
<path d="M136.956 271.114L135.946 271.039C135.907 271.563 135.879 272.09 135.846 272.615L131.316 272.464L136.068 281.352L141.404 272.801L136.858 272.649C136.89 272.136 136.917 271.624 136.956 271.114Z" fill="#7681F1"/>
<path d="M163.525 198.667L164.329 199.281C165.536 197.703 166.797 196.128 168.076 194.599L167.299 193.951C166.01 195.491 164.74 197.078 163.525 198.667Z" fill="#7681F1"/>
<path d="M171.277 189.406L172.024 190.088C173.367 188.619 174.762 187.162 176.168 185.754L175.451 185.041C174.035 186.459 172.63 187.927 171.277 189.406Z" fill="#7681F1"/>
<path d="M179.813 180.863L180.5 181.606C181.968 180.26 183.485 178.931 185.006 177.655L184.355 176.881C182.82 178.168 181.292 179.508 179.813 180.863Z" fill="#7681F1"/>
<path d="M156.616 208.58L157.472 209.119C158.535 207.439 159.652 205.759 160.792 204.124L159.961 203.547C158.813 205.194 157.688 206.888 156.616 208.58Z" fill="#7681F1"/>
<path d="M189.063 173.107L189.679 173.907C191.26 172.695 192.885 171.507 194.514 170.367L193.934 169.539C192.295 170.686 190.656 171.885 189.063 173.107Z" fill="#7681F1"/>
<path d="M150.61 219.066L151.51 219.528C152.422 217.757 153.386 215.985 154.376 214.258L153.497 213.756C152.5 215.497 151.529 217.283 150.61 219.066Z" fill="#7681F1"/>
<path d="M140.848 247.504L139.868 247.252C139.368 249.19 138.905 251.167 138.494 253.128L139.484 253.336C139.893 251.39 140.352 249.428 140.848 247.504Z" fill="#7681F1"/>
<path d="M198.958 166.194L199.501 167.047C201.178 165.981 202.903 164.939 204.628 163.948L204.123 163.072C202.385 164.069 200.648 165.119 198.958 166.194Z" fill="#7681F1"/>
<path d="M138.377 259.221L137.378 259.057C137.053 261.029 136.768 263.039 136.53 265.03L137.535 265.15C137.771 263.173 138.055 261.178 138.377 259.221Z" fill="#7681F1"/>
<path d="M145.559 230.048L146.496 230.428C147.247 228.585 148.05 226.732 148.883 224.922L147.963 224.5C147.123 226.324 146.314 228.189 145.559 230.048Z" fill="#7681F1"/>
<path d="M141.505 241.443L142.473 241.738C143.057 239.831 143.69 237.914 144.358 236.037L143.404 235.699C142.732 237.59 142.093 239.522 141.505 241.443Z" fill="#7681F1"/>
<path d="M267.423 146.056C269.407 145.988 271.427 145.96 273.426 145.979L273.435 144.969C271.423 144.95 269.386 144.977 267.388 145.046L267.423 146.056Z" fill="#7681F1"/>
<path d="M209.419 160.182L209.884 161.078C211.652 160.164 213.461 159.278 215.262 158.446L214.837 157.531C213.022 158.368 211.199 159.261 209.419 160.182Z" fill="#7681F1"/>
<path d="M291.373 147.316C293.347 147.595 295.339 147.922 297.295 148.288L297.481 147.295C295.511 146.927 293.504 146.598 291.514 146.316L291.373 147.316Z" fill="#7681F1"/>
<path d="M303.169 149.519C305.107 149.971 307.062 150.474 308.982 151.012L309.255 150.041C307.322 149.498 305.352 148.993 303.399 148.537L303.169 149.519Z" fill="#7681F1"/>
<path d="M314.721 152.76C316.61 153.383 318.514 154.056 320.377 154.763L320.737 153.819C318.859 153.107 316.943 152.428 315.038 151.801L314.721 152.76Z" fill="#7681F1"/>
<path d="M279.426 146.163C281.419 146.268 283.434 146.417 285.412 146.608L285.51 145.603C283.516 145.41 281.487 145.26 279.48 145.154L279.426 146.163Z" fill="#7681F1"/>
<path d="M255.339 145.991L255.463 146.994C257.435 146.752 259.443 146.55 261.431 146.394L261.352 145.387C259.349 145.544 257.326 145.747 255.339 145.991Z" fill="#7681F1"/>
<path d="M231.728 151.047L232.027 152.011C233.929 151.423 235.87 150.868 237.796 150.368L237.54 149.391C235.599 149.897 233.644 150.454 231.728 151.047Z" fill="#7681F1"/>
<path d="M220.366 155.119L220.75 156.054C222.59 155.3 224.471 154.579 226.337 153.909L225.993 152.959C224.113 153.633 222.22 154.36 220.366 155.119Z" fill="#7681F1"/>
<path d="M243.421 147.993L243.633 148.981C245.579 148.565 247.559 148.186 249.525 147.856L249.357 146.859C247.377 147.193 245.379 147.574 243.421 147.993Z" fill="#7681F1"/>
<path d="M335.479 161.009L329.822 152.666L327.834 156.753C327.352 156.538 326.873 156.319 326.393 156.111L325.992 157.038C326.461 157.241 326.926 157.454 327.393 157.662L325.414 161.729L335.479 161.009Z" fill="#7681F1"/>
</g>
<defs>
<clipPath id="clip0_40002083_10985">
<rect width="458" height="369" fill="white" transform="translate(26 58)"/>
</clipPath>
</defs>
</svg>
