<svg width="54" height="54" viewBox="0 0 54 54" fill="none" xmlns="http://www.w3.org/2000/svg">
<circle cx="27" cy="27" r="21.5" fill="white" stroke="#DDDDDD"/>
<mask id="mask0_16765_44163" style="mask-type:alpha" maskUnits="userSpaceOnUse" x="6" y="6" width="43" height="43">
<circle cx="27.55" cy="27.5501" r="20.95" fill="white" stroke="#DDDDDD"/>
</mask>
<g mask="url(#mask0_16765_44163)">
<path d="M39.2834 29.9624C39.2835 39.9221 42.1678 60.9447 46.0833 62.9136L24.6116 62.7261H6.12915C10.219 60.8224 14.0744 39.9322 14.0745 29.9624V27.2329H39.2258L39.2834 29.9624Z" fill="#E2E2E2"/>
<path d="M39.2834 29.9624L39.7836 29.9624L39.7833 29.9519L39.2834 29.9624ZM46.0833 62.9136L46.0789 63.4136L46.3079 62.4669L46.0833 62.9136ZM24.6116 62.7261L24.6159 62.2261H24.6116V62.7261ZM6.12915 62.7261L5.91815 62.2728L6.12915 63.2261V62.7261ZM14.0745 29.9624L14.5745 29.9624V29.9624H14.0745ZM14.0745 27.2329V26.7329H13.5745V27.2329H14.0745ZM39.2258 27.2329L39.7257 27.2224L39.7154 26.7329H39.2258V27.2329ZM39.2834 29.9624L38.7834 29.9624C38.7835 34.9772 39.5082 42.7528 40.7229 49.5228C41.3303 52.9077 42.0632 56.0591 42.8958 58.4965C43.3118 59.7143 43.758 60.7697 44.2343 61.5916C44.7023 62.3992 45.2365 63.0474 45.8586 63.3603L46.0833 62.9136L46.3079 62.4669C45.9511 62.2875 45.5387 61.8481 45.0995 61.0902C44.6687 60.3467 44.2471 59.3588 43.8421 58.1733C43.0327 55.8039 42.3104 52.7081 41.7072 49.3462C40.5009 42.6229 39.7835 34.9073 39.7834 29.9624L39.2834 29.9624ZM46.0833 62.9136L46.0876 62.4136L24.6159 62.2261L24.6116 62.7261L24.6072 63.2261L46.0789 63.4136L46.0833 62.9136ZM24.6116 62.7261V62.2261H6.12915V62.7261V63.2261H24.6116V62.7261ZM6.12915 62.7261L6.34015 63.1794C6.98124 62.881 7.55233 62.2491 8.06536 61.451C8.58661 60.6401 9.08658 59.5959 9.5613 58.3886C10.5114 55.9723 11.3834 52.8427 12.1238 49.4764C13.6041 42.7461 14.5744 34.9937 14.5745 29.9624L14.0745 29.9624L13.5745 29.9624C13.5744 34.9009 12.617 42.5785 11.1471 49.2616C10.4124 52.6021 9.55373 55.6751 8.63066 58.0227C8.1688 59.1973 7.69658 60.1754 7.22417 60.9102C6.74354 61.6579 6.29951 62.0953 5.91815 62.2728L6.12915 62.7261ZM14.0745 29.9624H14.5745V27.2329H14.0745H13.5745V29.9624H14.0745ZM14.0745 27.2329V27.7329H39.2258V27.2329V26.7329H14.0745V27.2329ZM39.2258 27.2329L38.7259 27.2435L38.7836 29.973L39.2834 29.9624L39.7833 29.9519L39.7257 27.2224L39.2258 27.2329Z" fill="#BBBBBB"/>
<rect x="13.8922" y="15.0166" width="26.2429" height="29.8753" rx="13.1215" fill="#F2F2F2" stroke="#BBBBBB"/>
<mask id="path-6-inside-1_16765_44163" fill="white">
<path d="M26.8174 12.7002C34.4484 12.7002 40.6348 18.8865 40.6348 26.5176V27.5322C40.6348 28.1598 40.5918 28.7774 40.5107 29.3828C39.4426 29.3037 38.3888 29.0988 37.3701 28.7559C35.1387 28.0045 33.3387 26.6861 32.0361 24.9951C30.2506 26.6144 27.8914 27.9995 25.0996 28.9395C20.9535 30.3352 16.6698 30.4782 13.1514 29.585C13.0516 28.9152 13 28.2297 13 27.5322V26.5176C13 18.8866 19.1864 12.7002 26.8174 12.7002Z"/>
</mask>
<path d="M26.8174 12.7002C34.4484 12.7002 40.6348 18.8865 40.6348 26.5176V27.5322C40.6348 28.1598 40.5918 28.7774 40.5107 29.3828C39.4426 29.3037 38.3888 29.0988 37.3701 28.7559C35.1387 28.0045 33.3387 26.6861 32.0361 24.9951C30.2506 26.6144 27.8914 27.9995 25.0996 28.9395C20.9535 30.3352 16.6698 30.4782 13.1514 29.585C13.0516 28.9152 13 28.2297 13 27.5322V26.5176C13 18.8866 19.1864 12.7002 26.8174 12.7002Z" fill="#E2E2E2"/>
<path d="M26.8174 12.7002V11.7002H26.8174L26.8174 12.7002ZM40.6348 27.5322L41.6348 27.5322V27.5322H40.6348ZM40.5107 29.3828L40.4368 30.3801L41.3768 30.4497L41.5019 29.5155L40.5107 29.3828ZM37.3701 28.7559L37.051 29.7036L37.0511 29.7036L37.3701 28.7559ZM32.0361 24.9951L32.8283 24.3849L32.167 23.5264L31.3644 24.2544L32.0361 24.9951ZM25.0996 28.9395L25.4187 29.8872L25.4187 29.8872L25.0996 28.9395ZM13.1514 29.585L12.1623 29.7323L12.2603 30.3905L12.9053 30.5542L13.1514 29.585ZM13 27.5322H12V27.5322L13 27.5322ZM26.8174 12.7002V13.7002C33.8961 13.7002 39.6348 19.4388 39.6348 26.5176H40.6348H41.6348C41.6348 18.3342 35.0007 11.7002 26.8174 11.7002V12.7002ZM40.6348 26.5176H39.6348V27.5322H40.6348H41.6348V26.5176H40.6348ZM40.6348 27.5322L39.6348 27.5322C39.6348 28.1141 39.5949 28.6874 39.5196 29.2501L40.5107 29.3828L41.5019 29.5155C41.5886 28.8675 41.6348 28.2055 41.6348 27.5322L40.6348 27.5322ZM40.5107 29.3828L40.5847 28.3855C39.5952 28.3122 38.624 28.1228 37.6892 27.8081L37.3701 28.7559L37.0511 29.7036C38.1535 30.0747 39.2901 30.2951 40.4368 30.3801L40.5107 29.3828ZM37.3701 28.7559L37.6892 27.8081C35.6443 27.1196 34.0094 25.918 32.8283 24.3849L32.0361 24.9951L31.2439 25.6054C32.6681 27.4542 34.6332 28.8895 37.051 29.7036L37.3701 28.7559ZM32.0361 24.9951L31.3644 24.2544C29.6908 25.7721 27.4552 27.0912 24.7805 27.9917L25.0996 28.9395L25.4187 29.8872C28.3277 28.9078 30.8104 27.4568 32.7079 25.7359L32.0361 24.9951ZM25.0996 28.9395L24.7806 27.9917C20.8028 29.3308 16.7155 29.4581 13.3974 28.6157L13.1514 29.585L12.9053 30.5542C16.6242 31.4983 21.1043 31.3396 25.4187 29.8872L25.0996 28.9395ZM13.1514 29.585L14.1405 29.4376C14.048 28.8166 14 28.1803 14 27.5322L13 27.5322L12 27.5322C12 28.2791 12.0553 29.0139 12.1623 29.7323L13.1514 29.585ZM13 27.5322H14V26.5176H13H12V27.5322H13ZM13 26.5176H14C14 19.4389 19.7387 13.7002 26.8174 13.7002L26.8174 12.7002L26.8174 11.7002C18.6341 11.7002 12 18.3343 12 26.5176H13Z" fill="#BBBBBB" mask="url(#path-6-inside-1_16765_44163)"/>
<rect x="22.4731" y="30.8618" width="1.8162" height="3.63239" rx="0.908098" fill="#8A8A8A"/>
<rect x="29.738" y="30.8618" width="1.8162" height="3.63239" rx="0.908098" fill="#8A8A8A"/>
<path d="M24.2893 38.1265V38.1265C25.6515 39.9427 28.3757 39.9427 29.7379 38.1265V38.1265" stroke="#8A8A8A" stroke-linecap="round" stroke-linejoin="round"/>
<path d="M20.6569 48.5698L21.565 57.6508L26.1054 52.6975" stroke="#CCCCCC" stroke-linecap="round" stroke-linejoin="round"/>
<path d="M33.3702 48.5698L32.4621 57.6508L27.9217 52.6975" stroke="#CCCCCC" stroke-linecap="round" stroke-linejoin="round"/>
</g>
</svg>
